<svg id="Layer_1" data-name="Layer 1" xmlns="http://www.w3.org/2000/svg" viewBox="0 0 131.09 120.63"><defs><style>.cls-1{fill:#383a47;}.cls-2{fill:#f8ed9a;}.cls-3{opacity:0.15;}.cls-4{fill:#fff;}.cls-5{fill:#cfefeb;}.cls-6{fill:#7bbf78;}</style></defs><title>m_32 [Converted]</title><path class="cls-1" d="M51.8,35.34a2.1,2.1,0,0,1-2.33,1.85l-7-.81A2.1,2.1,0,0,1,40.67,34l3.13-27a2.1,2.1,0,0,1,2.33-1.84l7,0.81a2.1,2.1,0,0,1,1.85,2.33Z" transform="translate(0 -5.23)"/><path class="cls-1" d="M51.8,35.34a2.1,2.1,0,0,1-2.33,1.85l-7-.81A2.1,2.1,0,0,1,40.67,34l3.13-27a2.1,2.1,0,0,1,2.33-1.84l7,0.81a2.1,2.1,0,0,1,1.85,2.33Z" transform="translate(0 -5.23)"/><path class="cls-1" d="M46.2,54.68c-0.13,1.15-.62,2-1.09,2l-2.83-.33c-0.47-.05-0.74-1-0.61-2.19l3.13-27c0.13-1.15.62-2,1.09-2l2.83,0.33c0.47,0.05.74,1,.61,2.19Z" transform="translate(0 -5.23)"/><rect class="cls-2" x="41.33" y="28.64" width="9.03" height="17.03" transform="translate(3.65 73.17) rotate(-83.37)"/><path class="cls-1" d="M39.31,35.2l1.1,0.13,0.82,1.86h0v0q0-.25,0-0.43a2.7,2.7,0,0,1,0-.34l0.11-.94,1.09,0.13L42.1,38.71,41,38.58l-0.81-1.77h0a4,4,0,0,1,0,.64l-0.12,1-1.09-.13Z" transform="translate(0 -5.23)"/><path class="cls-1" d="M42.94,35.63l2.11,0.25-0.1.86-1-.11,0,0.3L44.84,37l-0.09.82-0.88-.1,0,0.31,1,0.12-0.1.86-2.15-.25Z" transform="translate(0 -5.23)"/><path class="cls-1" d="M46.48,36L46.66,38h0a4.38,4.38,0,0,1,.16-0.57l0.48-1.26,0.88,0.1,0.21,1.93h0a4.75,4.75,0,0,1,.14-0.55l0.47-1.28,1.19,0.14-1.47,3-1-.12-0.16-1.75h0v0.05a2.79,2.79,0,0,1-.1.41L47,39.28l-1-.11L45.29,35.9Z" transform="translate(0 -5.23)"/><path class="cls-1" d="M50.45,38.54l0.05,0.05a1.66,1.66,0,0,0,.33.25,0.93,0.93,0,0,0,.35.12,0.44,0.44,0,0,0,.2,0,0.15,0.15,0,0,0,.11-0.13,0.12,0.12,0,0,0,0-.12,0.56,0.56,0,0,0-.16-0.07h0L51,38.54a1.16,1.16,0,0,1-.56-0.34,0.73,0.73,0,0,1-.16-0.59,1,1,0,0,1,.17-0.48,1.12,1.12,0,0,1,.35-0.33,1.38,1.38,0,0,1,.47-0.18,1.7,1.7,0,0,1,.51,0,1.89,1.89,0,0,1,1,.39l-0.4.77a1.82,1.82,0,0,0-.3-0.21,0.92,0.92,0,0,0-.33-0.1,0.38,0.38,0,0,0-.17,0,0.14,0.14,0,0,0-.09.12,0.11,0.11,0,0,0,0,.1,0.43,0.43,0,0,0,.14.07h0l0.25,0.09a1.24,1.24,0,0,1,.58.37,0.81,0.81,0,0,1,.15.62,1,1,0,0,1-.17.47,1,1,0,0,1-.35.32,1.43,1.43,0,0,1-.46.16,1.77,1.77,0,0,1-.51,0A2.84,2.84,0,0,1,50,39.39Z" transform="translate(0 -5.23)"/><g class="cls-3"><path class="cls-4" d="M52,33.33l2.9-24.94a2.1,2.1,0,0,0-1.85-2.33l-3.36-.39L43.82,56.52l1.3,0.15c0.47,0.05,1-.84,1.09-2l1.48-12.76,6.09,0.71,1-9Z" transform="translate(0 -5.23)"/></g><path class="cls-1" d="M81.77,29.08l5.6-11.85a2.1,2.1,0,0,0-1-2.8l-6.33-3a2.1,2.1,0,0,0-2.8,1l-5.6,11.85Z" transform="translate(0 -5.23)"/><path class="cls-1" d="M64.28,58.29c-0.5,1-1.24,1.74-1.67,1.53L60,58.61c-0.43-.2-0.37-1.22.13-2.26L70.49,31.22c0.5-1,2.51-1.14,2.94-.94L76,31.5c0.43,0.2,1.64,1.81,1.14,2.86Z" transform="translate(0 -5.23)"/><rect class="cls-5" x="67.67" y="22.77" width="12.93" height="18.68" transform="translate(13.41 80.17) rotate(-64.69)"/><path class="cls-1" d="M69.84,26.58l4.56,2.16-0.92,1.94-1.17-.62-1.93,4.09-2.17-1L70.15,29l-1.22-.51Z" transform="translate(0 -5.23)"/><path class="cls-1" d="M80.94,31.83L75.8,36.71,74,35.84l0.51-7.06,2.27,1.07-0.49,3.09a3.52,3.52,0,0,1-.27,1l0,0a3.51,3.51,0,0,1,.57-0.82l2.08-2.34Z" transform="translate(0 -5.23)"/><g class="cls-3"><path class="cls-4" d="M82,28.66l5.41-11.43a2.1,2.1,0,0,0-1-2.8l-3.59-1.7L60.9,59l1.71,0.81c0.43,0.2,1.17-.49,1.67-1.53L74.43,39.4,79.82,42l5.53-11.69Z" transform="translate(0 -5.23)"/></g><path class="cls-1" d="M77.25,74c-0.85.79-1.79,1.16-2.12,0.82l-1.95-2.07c-0.32-.34.1-1.27,0.95-2.06L93.9,52.09c0.85-.79,1.79-1.16,2.12-0.82L98,53.34c0.32,0.34-.1,1.27-0.95,2.06Z" transform="translate(0 -5.23)"/><path class="cls-1" d="M106.78,55.13a8.41,8.41,0,0,1-11.88-.37l-0.48-.51a8.41,8.41,0,0,1,.37-11.88L99.4,38a8.4,8.4,0,0,1,11.88.37l0.48,0.51a8.41,8.41,0,0,1-.37,11.88Z" transform="translate(0 -5.23)"/><rect class="cls-2" x="87.94" y="45.46" width="10.87" height="20.5" transform="translate(-12.82 73.8) rotate(-43.21)"/><path class="cls-1" d="M89.14,48.52l0.91,1-0.69,2.35,0,0,0,0,0.32-.4a3,3,0,0,1,.28-0.3l0.83-.78,0.91,1L89,53.91l-0.91-1,0.62-2.26,0,0a4.91,4.91,0,0,1-.5.59l-0.9.85-0.91-1Z" transform="translate(0 -5.23)"/><path class="cls-1" d="M92.16,51.73l1.75,1.87-0.76.71-0.8-.85-0.27.25,0.73,0.78-0.72.68-0.73-.78-0.27.26,0.83,0.88-0.76.71-1.78-1.9Z" transform="translate(0 -5.23)"/><path class="cls-1" d="M95.09,54.86l-1.33,1.91,0,0a5.22,5.22,0,0,1,.59-0.4l1.42-.78,0.73,0.77-1.3,1.94,0,0a5.41,5.41,0,0,1,.56-0.39l1.43-.82,1,1.05-3.7,1.63-0.83-.88,1.21-1.73,0,0-0.05,0a3.35,3.35,0,0,1-.42.3l-1.35.74-0.81-.86,1.86-3.58Z" transform="translate(0 -5.23)"/><path class="cls-1" d="M96.8,60.24v0.09a1.9,1.9,0,0,0,.1.48,1.1,1.1,0,0,0,.23.38,0.53,0.53,0,0,0,.21.14,0.18,0.18,0,0,0,.2,0,0.15,0.15,0,0,0,.06-0.15A0.66,0.66,0,0,0,97.52,61l0,0-0.15-.24a1.38,1.38,0,0,1-.25-0.75,0.88,0.88,0,0,1,.3-0.67A1.27,1.27,0,0,1,97.92,59a1.35,1.35,0,0,1,.58,0,1.63,1.63,0,0,1,.57.2,2,2,0,0,1,.49.38,2.27,2.27,0,0,1,.58,1.11l-1,.4a2.14,2.14,0,0,0-.12-0.43,1.12,1.12,0,0,0-.22-0.35,0.46,0.46,0,0,0-.17-0.12,0.16,0.16,0,0,0-.18,0,0.13,0.13,0,0,0,0,.13,0.58,0.58,0,0,0,.08.17l0,0,0.16,0.28a1.5,1.5,0,0,1,.24.79,1,1,0,0,1-.34.69,1.21,1.21,0,0,1-1.09.32A1.73,1.73,0,0,1,97,62.36,2.24,2.24,0,0,1,96.47,62,3.28,3.28,0,0,1,96,61.36a3.18,3.18,0,0,1-.3-0.69Z" transform="translate(0 -5.23)"/><g class="cls-3"><path class="cls-4" d="M102.33,57.31a8.37,8.37,0,0,0,4.45-2.18l4.61-4.33a8.41,8.41,0,0,0,.37-11.88l-0.4-.43L74,73.59l1.13,1.21c0.32,0.34,1.27,0,2.12-.82L91,61.09l5.46,5.81,7.93-7.44Z" transform="translate(0 -5.23)"/></g><circle class="cls-1" cx="9.04" cy="23.12" r="9.03" transform="translate(-7.95 -0.21) rotate(-21.83)"/><rect class="cls-5" x="2.82" y="28.28" width="22.92" height="15.86" transform="translate(-12.44 2.68) rotate(-21.83)"/><rect class="cls-1" x="18.03" y="43.18" width="6.02" height="19.83" transform="translate(-18.23 6.4) rotate(-21.83)"/><path class="cls-1" d="M5.72,35.47l5.75-2.3,1,2.45-1.53.53L13,41.29l-2.73,1.1L8.18,37.24l-1.48.67Z" transform="translate(0 -5.23)"/><path class="cls-1" d="M19.7,29.86l0.1,8.69-2.32.93-5.93-6.36L14.41,32l2.37,3a4.37,4.37,0,0,1,.64,1l0.06,0a4.33,4.33,0,0,1-.26-1.2L16.85,31Z" transform="translate(0 -5.23)"/><g class="cls-3"><path class="cls-4" d="M17.44,26.4A9,9,0,0,0,5.68,14.74h0L17.21,43.59l10.66-4.27L22,24.59Z" transform="translate(0 -5.23)"/></g><g class="cls-3"><rect class="cls-4" x="20.92" y="42.62" width="3.03" height="19.83" transform="translate(-17.93 6.88) rotate(-21.83)"/></g><path class="cls-1" d="M109.53,85.36l19-5.69c1.69-.5,2.78-1.81,2.45-2.93L129,70c-0.33-1.11-2-1.6-3.66-1.1l-19,5.69Z" transform="translate(0 -5.23)"/><path class="cls-1" d="M83.64,89.63c-1.11.33-2.12,0.24-2.26-.22l-0.81-2.73c-0.14-.45.66-1.09,1.77-1.42l25.59-9.11c1.11-.33,2.52,1.11,2.66,1.56l0.82,2.73c0.13,0.45-.26,2.43-1.37,2.76Z" transform="translate(0 -5.23)"/><rect class="cls-5" x="107.53" y="74.2" width="2.08" height="11.21" transform="translate(-18.31 29.22) rotate(-16.65)"/><rect class="cls-5" x="116.97" y="70.09" width="2.08" height="13.78" transform="translate(-17.1 31.79) rotate(-16.64)"/><g class="cls-3"><path class="cls-4" d="M120.62,82l8-2.38c1.69-.5,2.78-1.81,2.45-2.93L130,73.16,80.91,87.83l0.47,1.59c0.13,0.45,1.15.55,2.26,0.22l25-6.08,0.57,1.92,9.44-2.82L119,83.88l2-.6Z" transform="translate(0 -5.23)"/></g><circle class="cls-2" cx="48.67" cy="86.38" r="39.47" transform="translate(-50.23 88.21) rotate(-64.69)"/><path class="cls-6" d="M63.35,99.49c-0.2.17-.4,0.94,0.16,0.55S63.64,99.09,63.35,99.49Z" transform="translate(0 -5.23)"/><path class="cls-6" d="M75.72,102.19a2.12,2.12,0,0,0,.1-1,6.33,6.33,0,0,1,.71-3.48c-0.52.3-1,.08-0.65-0.6a4.09,4.09,0,0,0-.44-1.25c-0.26-.12-0.66,0-1-0.15a1.52,1.52,0,0,1-1-.86c0-.16,0-0.53-0.23-0.52s-0.47.12-.62-0.12a4.13,4.13,0,0,1-.46-0.86A1.55,1.55,0,0,0,72,92.5c-0.78-.18-0.33,1.53-0.19,1.91l-0.07,0c0.07,0.22-.14.57,0.27,0.53a5.14,5.14,0,0,1,.9-0.24c0.23,0.11-.09.34,0.09,0.47a1.61,1.61,0,0,1,.47.66c0.18,0.49-.91,1-1.32,1.21s-1.4.11-1.6,0.24a14.46,14.46,0,0,0-1.54,0c-0.64.11-1.08-.14-0.93-0.78a3.39,3.39,0,0,0,.21-1.69,2.59,2.59,0,0,1-.09-1.44,5.7,5.7,0,0,0,0-1.81c-0.65-.4-0.42.32-0.44,0.66a4,4,0,0,1-.14,1.25,1.49,1.49,0,0,0-.27,1.29,8.88,8.88,0,0,1,.49,2,1,1,0,0,1-.09.76c0,0.18-.06.33,0.33,0.42a3.61,3.61,0,0,0,.88,0c0.35,0,1.18,0,.8.5a2.45,2.45,0,0,1-.8.8,4.59,4.59,0,0,1-2.06,1.13,9.62,9.62,0,0,0-2,1,1.46,1.46,0,0,0-.75,1.46,1.18,1.18,0,0,1-.05.81,1.4,1.4,0,0,0-.32.69c-0.28.65-1.07,0.71-1.72,0.95a1.53,1.53,0,0,0-1,1.39c-0.09.31-.3,0.22-0.69,0.17-0.56-.08-0.29.25-0.39,0.5,0,0.48-1.23.86-1.63,1-0.83.41-1.31-.23-2.18-0.19-0.41,0-1,.08-0.86-0.62,0.08-.34.22-0.66,0.27-1a4,4,0,0,1-.06-1.36c0.28-.46.67-0.54,0.53-1.16a3.48,3.48,0,0,1,.34-2.82,1.53,1.53,0,0,1,.71-0.52c0.32-.09.34-1,0.5-1.32a2.74,2.74,0,0,0-.06-2.25A1.89,1.89,0,0,1,58.26,96c0.41-.16.18-0.91-0.19-0.8-0.89.28-.48-0.57-0.72-1a0.82,0.82,0,0,0-1.12-.32c-0.52.23-1.95-.73-2-0.32-0.48.43-.63-1.55-0.63-1.77A1.8,1.8,0,0,0,53,90.44c-0.27-.38.17-0.79,0.12-1.22,0-.09.91-0.68,1-0.9A2.12,2.12,0,0,1,54.53,87a10.68,10.68,0,0,0,1-1c0.4-.33,1.13.06,1.46-0.27s0.62-1.21,1.06-1a2,2,0,0,0,.75-0.17c0.32,0,.81.31,1.2,0.33s0.42,0,.68,0c0.71,0,1.36.64,2,.62,0.83,0,.72.79,0.49,1.14-0.58,0-.44,0-0.22.5l-0.07,0a15.6,15.6,0,0,0,1.36,1.65l-0.08,0c0.37,0.53.64,0.15,1-.13s0.48,0.19.71,0.36,1,0.35,1.06.65-0.88.18-.89,0.41a2.82,2.82,0,0,0,1-.15c0.42,0,.8.61,1.11,0.49a3.54,3.54,0,0,0,1.11-1.13c0.21-.38-0.46-0.3-0.68-0.36-0.6-.17-1.6-1-1.3-1.65,0.15-.34.35-0.81-0.19-0.64s-0.45-.09-0.29.41l-0.06,0a0.79,0.79,0,0,1,0,.39,2.89,2.89,0,0,1-1.19.23c0-.36.36-0.73,0.32-1.1a5.12,5.12,0,0,0-.33-1.57,2.64,2.64,0,0,0-.67-1.24c-0.39.12,0.23,1.31,0.42,1.59l-0.08,0a5.55,5.55,0,0,0,.42.66c-0.49-.18-0.59.29-0.63,0.65s-0.25-1-.32-1.14A2.44,2.44,0,0,1,64,84.31c-0.09-.5-0.11-0.66-0.67-0.56a1.53,1.53,0,0,1-.86-0.41c0.34,0.21-1.2.45-1.09,0.4a1.09,1.09,0,0,0-.57.55,1.67,1.67,0,0,1-.83.22,1,1,0,0,0-1,0,0.94,0.94,0,0,0-.41-0.68,0.66,0.66,0,0,1-.26-0.7,4.41,4.41,0,0,0,.5-0.62,1.18,1.18,0,0,1,.35-0.72c0.4-.3,1.35.64,1.75,0.74a0.83,0.83,0,0,0,.6-0.86,9.34,9.34,0,0,1-.62-0.79A4.07,4.07,0,0,1,62.1,81a1.31,1.31,0,0,0,.65.1c0.19-.1.12-0.34,0.38-0.32a2.52,2.52,0,0,0,.51.08,5.58,5.58,0,0,1,.62-0.23,1,1,0,0,1,.82.3c0.09-.39-0.12-1,0.61-0.95,0.57,0.08.15,0.36,0.06,0.62-0.15.43,0.59,0.68,0.92,0.74a3.32,3.32,0,0,1,1.08.51c0.41,0.1.15,0.12,0.5-.25s0.52-.32,1-0.06,0-.45.06-0.49a2.85,2.85,0,0,1,1.17.39c0.53,0.23.7-.2,0.29-0.36a10.3,10.3,0,0,1-1.44-.44,1,1,0,0,1,.17-1c0.1-.06,1.5-0.21,1.37-0.38a1.85,1.85,0,0,0-.71-0.36c-0.23-.09-0.15.08-0.26,0.23-0.41.55-1.38,0.06-1.67,0.51,0.17,0.44.53,0.54-.1,0.78a3.65,3.65,0,0,1-.8.55,2.8,2.8,0,0,1-1.12-.2c-0.29-.08.35-1.09,0.12-1.25s-0.65.51-1.15-.06a1.45,1.45,0,0,1,0-1.18c0.14-.93,2.24-0.52,2.8-0.68a5,5,0,0,1,1.33-.44,12.57,12.57,0,0,1,1.51,0c1.08,0.06,1.92,1.2,2.58,2l-0.1,0a5.61,5.61,0,0,0,1.41.86,2.56,2.56,0,0,1,.48.76c0.25,0.33-1.61,0-2-.36a1,1,0,0,1,0,.62,0.63,0.63,0,0,0,.45,0,0.67,0.67,0,0,1,.34.36c0.3,0.25.42-.35,0.81-0.26,0.18,0,.35,0,0.54,0a0.72,0.72,0,0,1,.09.41c0.11,0.15.24-.53,0.25-0.58,0.11-.39.38-0.34,0.68-0.14s-0.31.52-.27,0.63,0.44-.1.48-0.1a0.64,0.64,0,0,1,.49.16c0.36,0.17.74,0.16,1.1,0.31s1,0.11,1.21.47a0.33,0.33,0,0,0,.43.17c-0.07-.51-0.16-1-0.26-1.52l-0.1.07c-0.13.31,0.32,0.42-.09,0.63s-1-.64-1.23-0.89c0.1,0.12-.08-0.08,0,0-0.3-.31,1-0.38.91-0.37a2.12,2.12,0,0,0,.38-0.06A31.69,31.69,0,0,0,32.56,59.51h0.12a4.78,4.78,0,0,0,.73.33c0.24-.08.12,0.41,0.11,0.43A1.76,1.76,0,0,1,35.3,61l-0.08,0c0.08,0.23,1,.93.77,0.35a10.05,10.05,0,0,0-.28-1,0.45,0.45,0,0,1-.34.13l0.07,0c-0.22,0-1.6-.56-1.41-0.9l0.72-.4a1,1,0,0,1,.72.24,3.25,3.25,0,0,1,1.34.7,1.93,1.93,0,0,0,1.29,1c0.71,0.23.18,0.5,0.47,0.89a1,1,0,0,1,.28-0.74,2.91,2.91,0,0,1,.87.49c0,0.39-.52.06-0.29,0.63a2.61,2.61,0,0,0,.61.54c0.46,0.57-1.27.15-1.29,0.15-0.25.36,0.53,0.52,0.82,0.67a2.45,2.45,0,0,0,.78.36c0.46,0,0-.48.07-0.59s0.64,0.27.73,0.21a1,1,0,0,0-.25.7c0,0.27.34,0,.47,0s0.27-.43.28-0.52c0.1-1.25.69,0,.8,0.5l-0.08,0c0,0.06,0,.4.13,0.39s0.39-.13.52,0.16a0.47,0.47,0,0,1-.12.46,6.69,6.69,0,0,0,.81-0.15c0.36-.4-0.67-0.6-0.86-1-0.36-.77.48-0.68,0.9-0.7,0.93-.06,0,0.67.11,0.83,0.19,0.44.63-.29,0.59-0.3,0.17,0.07.41,0.09,0.61,0.17l1,0.41a2.1,2.1,0,0,1,.76.83l-0.08,0A16.13,16.13,0,0,1,48.39,67c0,0.23-.38.72,0.13,0.77a2.87,2.87,0,0,1,.81.93l-0.13-.06,0.33,0.26a1.41,1.41,0,0,1-.79.26c-0.32.07-.53-0.95-0.85-0.74a1.33,1.33,0,0,0,.31.76l-0.08,0a0.69,0.69,0,0,1,0,.66,0.77,0.77,0,0,1-.34-0.34c-0.15-.14-0.21.11-0.28,0.08a1.22,1.22,0,0,1-.5-0.25c0-.09,0-0.42-0.21-0.4s-0.16.07-.19,0a1.83,1.83,0,0,0-.64-0.8c-0.1,0-1.07-.47-1.07-0.45a0.43,0.43,0,0,1,.38-0.49,0.93,0.93,0,0,0,.75.23,1.41,1.41,0,0,1,.74-0.17,0.65,0.65,0,0,0-.23-0.36C46.28,66.68,46.15,67,46,67a0.78,0.78,0,0,1-.53-0.29c0-.07.73-0.12,0.55-0.44a1.62,1.62,0,0,1-.43-0.59c-0.13.25-1.12-.16-1.07,0,0.09,0.38.46,0.66-.29,0.6a8.6,8.6,0,0,0-1.1-.31,1.2,1.2,0,0,0,.58.36,2.6,2.6,0,0,1,.64.92l-0.08,0c0.13,0.24-.41.45-0.46-0.15,0-.21-0.4-0.18-0.53-0.17s-0.86-.12-0.38-0.26c0.24-.07-0.09-0.39,0-0.56a5.16,5.16,0,0,1-.43.5c-0.69-.75-2.27-0.17-2,0.85l-0.08,0c0.15,0.2-.12.46,0.22,0.5a3.18,3.18,0,0,1,.44.27,2.75,2.75,0,0,0,.88.83,0.93,0.93,0,0,1,.74.49,3.74,3.74,0,0,0-.12.78,2.13,2.13,0,0,0,.33-0.16c0,0.13-.67,1.18.18,0.88a1.25,1.25,0,0,0,.27-0.9c-0.07-.38.26-0.43,0.28-0.16l-0.06,0c0.11,0.34.58,0.12,0.72-.1S44,69.2,44,69a0.54,0.54,0,0,1,.33,0,1.15,1.15,0,0,1,.13-0.36c0.05-.07.24-0.47,0.41-0.38a2.4,2.4,0,0,1,1,.49,3.49,3.49,0,0,0,.61.66l-0.21-.1c0.89,0.58-.27.45,0.14,0.9a0.68,0.68,0,0,0,.66.29c0.12,0,.57-0.42.67-0.22A2.6,2.6,0,0,1,48,71.45,1.51,1.51,0,0,0,48,72a1.34,1.34,0,0,1,.55.32l-0.11,0c0,0.06.59,1.13,0.59,1.15s-0.85.61-.81,0.69a0.82,0.82,0,0,1,.19.17l-0.07,0c0.12,0.27.48,0.16,0.47,0.51s0.07,0.14.08,0.49-0.34,0-.47,0a0.75,0.75,0,0,0-.26,0,0.77,0.77,0,0,0-.26-0.3c-0.74-.09-0.58-0.38-0.17-0.74,0.1-.08.81-0.4,0.47-0.56a1.06,1.06,0,0,1-.75,0c-0.47-.24-0.48.2-0.71,0.23-0.57.08-.24-0.57-0.24-0.57A2.43,2.43,0,0,1,45.73,73c-0.56-.1-0.75-0.2-1.08.31a3.1,3.1,0,0,1,1.43.25c0.33,0.16-.14.42-0.12,0.55s0.41,0.28.42,0.25c0,0.39-.11.46,0.37,0.32,0,0,.43.8-0.41,0.59a3.31,3.31,0,0,0-1.12-.1s-0.29.06-.28-0.15a1.3,1.3,0,0,0,.11-0.5,1.9,1.9,0,0,0-1.22.17c-0.19.41,0.13,0.94-.65,0.4a0.73,0.73,0,0,0-.84.12,1.23,1.23,0,0,1-.21.35,1.25,1.25,0,0,1-.48-0.08c0,0.18,0,.58,0,0.68a1.66,1.66,0,0,1-.86.25,3.61,3.61,0,0,0-1.36.64c-0.2.46,0.06,1.11-.33,1.48-0.74.68-.29-1.44-0.34-1.56s-0.27.17-.35,0,0-.37-0.15-0.4a3.8,3.8,0,0,0-1-.25c-0.13,0-.08.27-0.3,0.18a10.13,10.13,0,0,0-.84-0.63,4.49,4.49,0,0,0-1.3.36c0.17,0.18-.51,1.13-0.6,1.41s-0.12,1.41.33,1.52a0.86,0.86,0,0,1,.59,0,0.12,0.12,0,0,0,.16.09c0.27-.07.29-0.82,0.7-0.54,0.67,0.42.89,0.26,0.34,0.91a6.17,6.17,0,0,0-.76.89c0.12,0.5,1,.11,1.13.7a0.86,0.86,0,0,1-.34.85,1.29,1.29,0,0,0-.22.91c-0.28.58,0.78,0.3,0.89,0.37a1.54,1.54,0,0,0,.51.63c0.38-.06.73-0.56,1.15-0.43s0.83-.25.35,0.39a0.73,0.73,0,0,0-.19.62c0.25-.22.51-0.82,1-0.59C40,84,39.75,84.6,40,84.53c0.56-.2.37,0.5,0.55,0.53s0.28-.22.37-0.23a0.53,0.53,0,0,1,.45.21L41.21,85c0.11,0.11.12,0.52,0.34,0.39a1,1,0,0,1,.36-0.2s-0.55.66-.55,0.68a4.27,4.27,0,0,1,.51.45l-0.06,0a3.33,3.33,0,0,0,.24.83,1,1,0,0,0,.49.05,1,1,0,0,1,.47.69l-0.07,0a5.88,5.88,0,0,0,.24,1.12l-0.07,0c0.54,1.16-.79.16-0.89,0.73s1.23-.27,1.06.36a1.22,1.22,0,0,1-.71.4c0.18,0.46,1-.71,1.38.26,0.08,0.2.31,0.42,0.42,0.63,0.19,0.36.64,0.22,0.85,0.63l-0.1,0a4,4,0,0,1,.79,1.38c-0.19-.12,0,0.11-0.09.33h0a2.45,2.45,0,0,1-1.15,1.1,2.74,2.74,0,0,0-.81.36,1.42,1.42,0,0,0-.23.55,3.61,3.61,0,0,1-.92,1.18,3.7,3.7,0,0,1-.78.64A3.36,3.36,0,0,1,41,97.27c-0.42,0-1.27,0-1.36.48-0.08.15,0,.55-0.39,0.5a0.84,0.84,0,0,0-.48.25A1.47,1.47,0,0,0,38,99a1.27,1.27,0,0,1-.59.37c-1,.36-1.23-0.18-1-1-0.3.31-.5,0.39-0.35,0.8,0,0.2.41,0.41,0.08,0.65a1,1,0,0,1-1,.37,1.17,1.17,0,0,0-.81-0.23,4.38,4.38,0,0,0-.23.44,1.57,1.57,0,0,1-.6-0.39c-0.2.43,0.06,0.34,0.2,0.56a4.75,4.75,0,0,1-1.24.66c-0.15,0-.46.2-0.19,0.35s0.29,0.19.06,0.46c-0.41.38-1.15,0.2-1.32,0.79a1.22,1.22,0,0,0,.72,1.35s0,0,0,0a2.12,2.12,0,0,1-1.55-.5c-0.13-.15-0.3-0.22,0-0.31,0,0,.71-0.3.33-0.37-0.35.15-.52,0.62-0.71-0.08-0.11-.41,0-0.71-0.15-1.11-0.08-.21.47-0.17,0.25-0.4s0-.4.2-0.55a3.23,3.23,0,0,0,.22-0.63,5.72,5.72,0,0,1,.59-0.36,9.43,9.43,0,0,0,.68-1.15c0.32-.32,0-0.63.45-0.83a6.65,6.65,0,0,0,.83-0.9,5,5,0,0,1,.51-0.9c0.31-.09,0-0.2.22-0.33A0.78,0.78,0,0,0,34,95.55c0.24-.44.35-0.91,0.62-1.34,0.5-.83.81-1.31,0.38-2.23a4.23,4.23,0,0,1-.68-1.1,8.87,8.87,0,0,1,.21-1.37,4.65,4.65,0,0,0,.09-1.22c-0.11-.48-0.46-0.68,0-1.11s0.3-.84.69-1.14,0.88-.16,1-0.36a1.53,1.53,0,0,0,.54-1.18s0-1.12-.31-0.68c-0.12,0-.27.3-0.48,0.15A1.41,1.41,0,0,1,36,83.63a5.53,5.53,0,0,1-.65-1.12c-0.22-.39.26-0.77-0.12-1.2a2.87,2.87,0,0,1-.79-0.72c-0.17-.39-0.17-1.15-0.79-0.8a0.23,0.23,0,0,1-.28-0.19c-0.13-.44-0.77-0.19-0.81-0.68A1.14,1.14,0,0,0,32.47,78c-0.3-.33-0.65-0.46-0.49-1a1.22,1.22,0,0,0,.12-0.78c-0.16-.65-0.3-1.33-0.5-2a10.82,10.82,0,0,0-.27-1.38c-0.36.11-.16,0.47-0.1,0.73,0,0.1.08,0.65,0.08,0.63a7.31,7.31,0,0,0,.12,1.07l-0.07,0c0,0.06.42,0.94,0,.73s-0.13-1.61-.66-1.72,0.18-.33.18-0.53-0.2-.59-0.17-1a1.94,1.94,0,0,0-.1-1.22,3,3,0,0,1-.63-0.65,7.34,7.34,0,0,1,.13-1.05,1.68,1.68,0,0,1,.09-1.18c0.19-.32.38-0.65,0.56-1s0.06-.54.18-0.78c0.29-.62-0.94-1-0.37-1.54a3.2,3.2,0,0,0-.26-1.48,1.92,1.92,0,0,0-.06.74c-0.22.34-.59,0-0.58-0.43s0.57-.81,0-1.1c-0.36-.17,0-0.77-0.33-1.11l-0.18-.16a31.69,31.69,0,1,0,47,40.6l0,0C75.71,102.65,75.53,102.69,75.72,102.19ZM63.85,85.81c0.79-.14.78,1.18,0.27,0.74h0A1.49,1.49,0,0,1,63.85,85.81Zm-0.52-1.25c0.25,0.12.14,0.67-.21,0.56,0.07,0-.08,0,0,0C62.71,85.11,63,84.4,63.33,84.55Zm-1.59-.25h0a0.15,0.15,0,0,1-.21,0C61.34,84,62.17,84.19,61.74,84.31Zm-0.13-6.5c0.21-.25.33,0.19,0.53,0.07a1,1,0,0,1,1.05.37l-0.28-.13c1,0.54-.2.42-0.11,1l-0.06,0c0.09,0.43.34,0.77,0.41,1.2l-0.06,0c0.06,0.34-.14.83-0.63,0.6-0.23-.11-0.38-0.34-0.62-0.45a1.48,1.48,0,0,1-.43,0c-0.08-.1.09-0.17,0.13-0.22-0.35-.1-0.74-0.28-0.24-0.5a2.58,2.58,0,0,1,.78-0.25c0.2,0-.32-0.49-0.34-0.53h0A1.11,1.11,0,0,1,61.61,77.8Zm-1.27,1c0.14-.48.1-0.25,0.38-0.37,0.24,0.11.89-.36,0.78,0.37a0.63,0.63,0,0,1-.68.66h0c-0.23,0-.63.11-0.71-0.21S60.27,79.1,60.34,78.85ZM39,59.33c0.16,0.1-.14.52-0.25,0.53A3.2,3.2,0,0,1,38,59.55h0C37.83,59.46,38.69,59.15,39,59.33Zm0.18,2s-1.3-.61-1.45-0.67A4.17,4.17,0,0,1,37.23,60c-0.26,0-.48.13-0.49-0.26s-0.61-.41-1.05-0.61l0.05,0-0.05,0-0.05,0,0.05,0c-0.44-.21-0.17-0.41.14-0.25,0.19-.23.24-0.15,0.63-0.09a0.87,0.87,0,0,1,.81.41,1.66,1.66,0,0,0,.7.6,1.07,1.07,0,0,0,.38.48,2.21,2.21,0,0,1,.7-0.07,1,1,0,0,0,.36.44c0.2,0,.34-0.06.38,0.18A1.19,1.19,0,0,1,39.18,61.32Zm1.1-1.43a1,1,0,0,1,.61.17,0.87,0.87,0,0,1,.66.9,0.41,0.41,0,0,1-.67-0.24c0-.3-0.28-0.25-0.55-0.38l0,0,0,0,0,0,0,0C40.16,60.25,40,60,40.28,59.88ZM40,61.51c-0.32.21-.11-0.54,0.14-0.63h0a2.51,2.51,0,0,1,1.51.77c0.05,0.32-.83.45-0.8,0S40.17,61.4,40,61.51Zm0.61,1.08s-1-.39-0.36-0.59a2.74,2.74,0,0,1,1.15.49h0C41.65,63,40.4,63.67,40.59,62.6ZM42,62.19a0.31,0.31,0,0,1,.45.21l-0.13-.06,0.09,0.16h0c0,0.18,0,0,0,0C42.42,62.63,41.84,62.42,42,62.19Zm0.54,1.17h0c-0.66-.21-1.28-0.64-0.16-0.58C42.7,62.88,43,63.5,42.58,63.35ZM45.22,64c-0.48-.26-1-0.48-1.46-0.72A4.52,4.52,0,0,1,42.46,62,0.86,0.86,0,0,1,42.1,61s0.43,0.37.52,0.45l-0.13-.06a2.51,2.51,0,0,1,.57.52,2.46,2.46,0,0,0,.64.92A5.9,5.9,0,0,1,45.87,64l-0.12-.06C46.16,64.33,45.37,64.11,45.22,64Zm-1.68,3.53c-0.1.09-.36-0.18-0.27-0.22l0.16,0s0.16,0,0,0C43.56,67.33,43.73,67.58,43.54,67.58Zm0.53,0.55c-0.17,0-.32-0.27-0.05-0.24h0C44.28,67.87,44.29,68.18,44.07,68.13Zm-4.7,11a0.2,0.2,0,0,1,.24.11l-0.09,0a0.13,0.13,0,0,1-.12.22s0.09,0,0,0-0.06,0,0,0C39.13,79.3,39.28,79.12,39.38,79.08Zm-0.92,2.56c-0.27,0-.12-0.49.12-0.44S38.75,81.68,38.45,81.64Zm1-.81c-0.5.08-.69-1-1.07-1.19-0.22-.11-1.32-0.68-0.56-0.57a1.7,1.7,0,0,1,1.28,1.07s0.77,0.77.35,0.7C39.49,80.84,39.33,80.85,39.44,80.84Zm0.06,0.6a1.15,1.15,0,0,1,1.22,0h0s0,0,0,0a0.74,0.74,0,0,1,.23.36l-0.07,0C41.22,82.91,39.77,81.6,39.51,81.44Zm1.9,1.24h0c-0.48,0,.23-0.9.22-0.11A0.64,0.64,0,0,1,41.41,82.68ZM58.73,71.5h0c0,0.43-.67.52-0.64,0.08a0.68,0.68,0,0,0-.28-0.79c-0.27-.13.21,1,0.2,1l-0.06,0c0.11,0.44-.2.1-0.44,0.08a2.77,2.77,0,0,1-1.31-.27c-0.61-.34-0.84.4-1.36,0.1s-1.18-.4-1.39.14c-0.12.31-.25,0-0.44,0.06a1.92,1.92,0,0,0-.27.43,3.62,3.62,0,0,1-.4.22c-0.38,0-.43-0.14-0.39-0.46a0.9,0.9,0,0,1-.52-0.28A3.94,3.94,0,0,1,51,70.7s0-.43.19-0.29a0.69,0.69,0,0,1-.31-0.72A1.12,1.12,0,0,1,51.32,69c0.06-.12-0.43-0.19-0.27-0.53a0.49,0.49,0,0,1,.56-0.29c0.51,0.2.06,0.31,0.06,0.54C51.47,69,52,69.25,52,68.7S51.79,68,51.43,68c-0.59.34-.31-0.2-0.2-0.52,0.21-.64-0.05-0.73-0.4-1.24s-1.76-.74-1.4-1.37c-0.09.16-.45,0.66-0.72,0.33a3.59,3.59,0,0,0-.63-1.1,0.3,0.3,0,0,1,.25,0l-0.1,0c0.25,0,.46.18,0.72,0.2a6.51,6.51,0,0,0,.65-0.24c0.3,0,.52.29,0.67-0.18a0.43,0.43,0,0,1,.44-0.16c0.14,0,.64.35,0.61,0S52.87,63.89,53,64c0.31,0.2.77,0.92,1.14,0.33,0.14-.21.54-0.82,0.56-0.17,0,0-.09.38,0.19,0.2A1.37,1.37,0,0,1,55.43,64a4.43,4.43,0,0,1,1.37.12l-0.13-.06a6.79,6.79,0,0,1,2.44,1.15L59,65.14a1.22,1.22,0,0,1,.53.52c-0.16.24-1.79-.44-2-0.56a2,2,0,0,0,1.23.56c0.27,0,.46.22,0.71,0.22a3.8,3.8,0,0,1,1,.3c0.84,0.23-.53,2.06.52,2.27,0.66,0.13.93-.54,1.57,0.07C63,69,62.12,69,61.81,69.08c-0.54.12-2.05,0.6-1.32,1.23C60,70.6,59.91,71.46,59.4,71S58.52,71.06,58.73,71.5Zm0.15,2.87c0-.27-0.52-0.25-0.55-0.57s0-.69.33-0.56,0.39,0.42.66,0.55a9.48,9.48,0,0,1,1,.26,1.54,1.54,0,0,1,.45.45,0.41,0.41,0,0,1-.4.29h0a3.94,3.94,0,0,1-.67,0C59.4,74.77,58.82,74.77,58.88,74.37Zm4.13,34a1.6,1.6,0,0,1,.16-1.15,2.82,2.82,0,0,1,.49-0.65,5.71,5.71,0,0,1,.22-0.79,4.82,4.82,0,0,1,1.35-.37c0.28-.14.7-0.7,0.9-0.19h0C66.18,106,63.74,109.21,63,108.4Z" transform="translate(0 -5.23)"/><path class="cls-6" d="M71.56,87.71a6.44,6.44,0,0,1-.68-1.22c0-.06.35,0,0.41-0.11s-0.43-.22-0.54-0.12-0.84.48-.83,0.16,0.05-1.09-.53-0.8a1.88,1.88,0,0,0-1.21,1l0,0h0l0,0c-0.06.1-.13,0.19-0.19,0.28,0-.07,1.09.33,1.19,0.26a1.08,1.08,0,0,1,1.1.45l-0.12-.06a1.92,1.92,0,0,0,1.13.73C71.69,88.43,71.73,88,71.56,87.71Z" transform="translate(0 -5.23)"/><path class="cls-1" d="M75.34,88.66l0,0S75.35,88.66,75.34,88.66Z" transform="translate(0 -5.23)"/><path class="cls-6" d="M31.49,66.68a0.54,0.54,0,0,0,0,.44c0.45-.18-0.11-1-0.27-1.26a0.52,0.52,0,0,0,0,.44C31.26,66.4,31.43,66.58,31.49,66.68Z" transform="translate(0 -5.23)"/><path class="cls-1" d="M42,73.26h0Z" transform="translate(0 -5.23)"/><path class="cls-6" d="M41,73.56c-0.42.07-.2,0.42,0.19,0.24a2.32,2.32,0,0,1,.9-0.13c1.09,0,.26-0.55-0.12-0.4A4,4,0,0,1,41,73.56Z" transform="translate(0 -5.23)"/><path class="cls-1" d="M75.32,88.68h0Z" transform="translate(0 -5.23)"/><path class="cls-1" d="M39.74,72.6l0,0.05Z" transform="translate(0 -5.23)"/><path class="cls-1" d="M41,71.53l0,0Z" transform="translate(0 -5.23)"/><path class="cls-6" d="M40.15,71.78a3.15,3.15,0,0,0-.41.82,0.52,0.52,0,0,0-.11.55l-0.06,0c0.22,0.33.57-.65,0.66-0.77s0.95-.38,1,0.1c0,0.2-.41.64-0.15,0.76s0.43-.54.63-0.67h0.08a0.31,0.31,0,0,0,.11.41C42.37,72.48,40.59,71.47,40.15,71.78Z" transform="translate(0 -5.23)"/><path class="cls-6" d="M40.31,71a6,6,0,0,0,.62.5c-0.06,0,0,0,0,0,0.45-.17-0.07-0.56-0.14-0.85a2.54,2.54,0,0,0-1.17,0C39.07,70.77,40.28,71,40.31,71Z" transform="translate(0 -5.23)"/><path class="cls-6" d="M71.92,81.77c0.42,0.09,0-.82-0.29-0.55S71.73,81.7,71.92,81.77Z" transform="translate(0 -5.23)"/><path class="cls-6" d="M74.86,87.65a1.06,1.06,0,0,1-1.06-.13C73,87,73.14,88.85,73.49,89.16l-0.13-.06a0.54,0.54,0,0,1,.29.54L73,89.73a0.52,0.52,0,0,0-.18.5c0,0.49,1.19,1.32,1.4.55a1.62,1.62,0,0,1,.21-0.95c0.33-.13,0-0.51-0.06-0.81s-0.52-.71.17-0.74c0.32-.06.43,0.39,0.79,0.4h0.06A0.91,0.91,0,0,0,74.86,87.65Z" transform="translate(0 -5.23)"/><path class="cls-5" d="M40.93,71.54l0,0S40.88,71.53,40.93,71.54Z" transform="translate(0 -5.23)"/><path class="cls-5" d="M31.2,66.3s0.06,0.13,0,0h0Z" transform="translate(0 -5.23)"/><path class="cls-5" d="M29.6,63.13c0.61,0.29,0,.69,0,1.1S30,65,30.21,64.66a1.92,1.92,0,0,1,.06-0.74,3.2,3.2,0,0,1,.26,1.48C30,66,31.2,66.33,30.91,66.94c-0.11.24,0,.53-0.18,0.78s-0.38.66-.56,1a1.68,1.68,0,0,0-.09,1.18,7.34,7.34,0,0,0-.13,1.05,3,3,0,0,0,.63.65,1.94,1.94,0,0,1,.1,1.22c0,0.37.18,0.64,0.17,1s-0.75.41-.18,0.53,0.07,1.58.66,1.72,0.06-.66,0-0.73l0.07,0a7.31,7.31,0,0,1-.12-1.07s-0.06-.54-0.08-0.63c-0.05-.26-0.26-0.62.1-0.73a10.82,10.82,0,0,1,.27,1.38c0.2,0.65.34,1.33,0.5,2A1.22,1.22,0,0,1,32,77c-0.16.53,0.19,0.66,0.49,1a1.14,1.14,0,0,1,.08.91c0,0.49.68,0.24,0.81,0.68a0.23,0.23,0,0,0,.28.19c0.62-.35.62,0.41,0.79,0.8a2.87,2.87,0,0,0,.79.72c0.38,0.43-.11.81,0.12,1.2A5.53,5.53,0,0,0,36,83.63a1.41,1.41,0,0,0,.16.34c0.21,0.15.35-.16,0.48-0.15,0.3-.44.28,0.63,0.31,0.68a1.53,1.53,0,0,1-.54,1.18c-0.17.2-.79,0.16-1,0.36s-0.32.82-.69,1.14-0.14.64,0,1.11a4.65,4.65,0,0,1-.09,1.22,8.87,8.87,0,0,0-.21,1.37A4.23,4.23,0,0,0,35,92c0.43,0.92.12,1.4-.38,2.23-0.26.43-.38,0.9-0.62,1.34a0.78,0.78,0,0,1-.45.16c-0.2.13,0.1,0.24-.22,0.33a5,5,0,0,0-.51.9,6.65,6.65,0,0,1-.83.9c-0.41.19-.13,0.5-0.45,0.83a9.43,9.43,0,0,1-.68,1.15,5.72,5.72,0,0,0-.59.36,3.23,3.23,0,0,1-.22.63c-0.21.15-.41,0.32-0.2,0.55s-0.33.19-.25,0.4c0.14,0.4,0,.69.15,1.11,0.19,0.7.36,0.23,0.71,0.08,0.38,0.06-.35.37-0.33,0.37-0.26.09-.09,0.16,0,0.31a2.12,2.12,0,0,0,1.55.5s0,0,0,0a1.22,1.22,0,0,1-.72-1.35c0.17-.59.92-0.41,1.32-0.79,0.23-.27.3-0.24-0.06-0.46s0-.31.19-0.35a4.75,4.75,0,0,0,1.24-.66c-0.14-.22-0.4-0.13-0.2-0.56a1.57,1.57,0,0,0,.6.39,4.38,4.38,0,0,1,.23-0.44,1.17,1.17,0,0,1,.81.23,1,1,0,0,0,1-.37c0.33-.23-0.05-0.44-0.08-0.65-0.15-.41.05-0.5,0.35-0.8-0.26.85,0,1.39,1,1A1.27,1.27,0,0,0,38,99a1.47,1.47,0,0,1,.73-0.45,0.84,0.84,0,0,1,.48-0.25c0.37,0,.31-0.36.39-0.5,0.09-.53.94-0.51,1.36-0.48a3.36,3.36,0,0,0,.94.16,3.7,3.7,0,0,0,.78-0.64,3.61,3.61,0,0,0,.92-1.18,1.42,1.42,0,0,1,.23-0.55,2.74,2.74,0,0,1,.81-0.36,2.45,2.45,0,0,0,1.15-1.1c0.08-.23-0.1-0.45.09-0.33a4,4,0,0,0-.79-1.38l0.1,0c-0.21-.41-0.66-0.27-0.85-0.63-0.11-.21-0.34-0.43-0.42-0.63-0.38-1-1.2.2-1.38-.26a1.22,1.22,0,0,0,.71-0.4c0.16-.63-1.16.18-1.06-0.36s1.43,0.43.89-.73l0.07,0a5.88,5.88,0,0,1-.24-1.12l0.07,0a1,1,0,0,0-.47-0.69A1,1,0,0,1,42,87.1a3.33,3.33,0,0,1-.24-0.83l0.06,0a4.27,4.27,0,0,0-.51-0.45s0.59-.68.55-0.68a1,1,0,0,0-.36.2c-0.21.13-.23-0.28-0.34-0.39L41.33,85a0.53,0.53,0,0,0-.45-0.21c-0.09,0-.22.17-0.37,0.23s0-.73-0.55-0.53c-0.21.07,0-.49-0.11-0.54-0.48-.22-0.74.38-1,0.59A0.73,0.73,0,0,1,39.05,84c0.48-.64.2-0.29-0.35-0.39s-0.77.37-1.15,0.43A1.54,1.54,0,0,1,37,83.37c-0.11-.08-1.17.21-0.89-0.37a1.29,1.29,0,0,1,.22-0.91,0.86,0.86,0,0,0,.34-0.85c-0.15-.59-1-0.2-1.13-0.7a6.17,6.17,0,0,1,.76-0.89c0.55-.65.33-0.49-0.34-0.91-0.41-.28-0.43.48-0.7,0.54a0.12,0.12,0,0,1-.16-0.09,0.86,0.86,0,0,0-.59,0c-0.44-.11-0.4-1.25-0.33-1.52s0.77-1.23.6-1.41a4.49,4.49,0,0,1,1.3-.36,10.13,10.13,0,0,1,.84.63c0.22,0.1.17-.16,0.3-0.18a3.8,3.8,0,0,1,1,.25c0.16,0,.1.29,0.15,0.4s0.32-.07.35,0-0.4,2.23.34,1.56c0.4-.36.13-1,0.33-1.48a3.61,3.61,0,0,1,1.36-.64,1.66,1.66,0,0,0,.86-0.25c0-.09,0-0.5,0-0.68a1.25,1.25,0,0,0,.48.08,1.23,1.23,0,0,0,.21-0.35,0.73,0.73,0,0,1,.84-0.12c0.79,0.53.46,0,.65-0.4A1.9,1.9,0,0,1,45,74.54a1.3,1.3,0,0,1-.11.5c0,0.21.27,0.14,0.28,0.15a3.31,3.31,0,0,1,1.12.1c0.84,0.21.43-.6,0.41-0.59-0.47.14-.39,0.07-0.37-0.32,0,0-.42,0-0.42-0.25s0.45-.39.12-0.55a3.1,3.1,0,0,0-1.43-.25c0.33-.5.52-0.41,1.08-0.31a2.43,2.43,0,0,0,.78.24s-0.33.64,0.24,0.57c0.23,0,.24-0.47.71-0.23a1.06,1.06,0,0,0,.75,0c0.34,0.16-.37.48-0.47,0.56-0.41.35-.57,0.65,0.17,0.74a0.77,0.77,0,0,1,.26.3,0.75,0.75,0,0,1,.26,0c0.12,0,.48.51,0.47,0s-0.09-.28-0.08-0.49-0.35-.24-0.47-0.51l0.07,0a0.82,0.82,0,0,0-.19-0.17c0-.07.8-0.58,0.81-0.69s-0.54-1.09-.59-1.15l0.11,0A1.34,1.34,0,0,0,48,72a1.51,1.51,0,0,1,0-.57,2.6,2.6,0,0,0-.23-1.24c-0.1-.2-0.55.18-0.67,0.22a0.68,0.68,0,0,1-.66-0.29c-0.42-.45.74-0.32-0.14-0.9l0.21,0.1a3.49,3.49,0,0,1-.61-0.66,2.4,2.4,0,0,0-1-.49c-0.18-.08-0.36.31-0.41,0.38a1.15,1.15,0,0,0-.13.36A0.54,0.54,0,0,0,44,69c0,0.24.41,0.6,0.23,0.88s-0.62.44-.72,0.1l0.06,0c0-.27-0.35-0.22-0.28.16A1.25,1.25,0,0,1,43,71c-0.84.3-.19-0.75-0.18-0.88a2.13,2.13,0,0,1-.33.16,3.74,3.74,0,0,1,.12-0.78A0.93,0.93,0,0,0,41.9,69,2.75,2.75,0,0,1,41,68.22,3.18,3.18,0,0,0,40.58,68c-0.34,0-.07-0.3-0.22-0.5l0.08,0c-0.27-1,1.31-1.6,2-.85a5.16,5.16,0,0,0,.43-0.5c-0.07.17,0.25,0.48,0,.56-0.48.14,0.24,0.27,0.38,0.26s0.52,0,.53.17c0,0.6.59,0.39,0.46,0.15l0.08,0a2.6,2.6,0,0,0-.64-0.92A1.2,1.2,0,0,1,43.12,66a8.6,8.6,0,0,1,1.1.31c0.74,0.06.38-.23,0.29-0.6-0.05-.19.94,0.22,1.07,0a1.62,1.62,0,0,0,.43.59c0.18,0.31-.57.37-0.55,0.44A0.78,0.78,0,0,0,46,67c0.17,0,.3-0.35.49-0.2a0.65,0.65,0,0,1,.23.36,1.41,1.41,0,0,0-.74.17,0.93,0.93,0,0,1-.75-0.23,0.43,0.43,0,0,0-.38.49s1,0.41,1.07.45a1.83,1.83,0,0,1,.64.8c0,0.06.14,0,.19,0s0.18,0.31.21,0.4a1.22,1.22,0,0,0,.5.25c0.07,0,.12-0.22.28-0.08a0.77,0.77,0,0,0,.34.34,0.69,0.69,0,0,0,0-.66l0.08,0a1.33,1.33,0,0,1-.31-0.76c0.32-.21.53,0.81,0.85,0.74a1.41,1.41,0,0,0,.79-0.26l-0.33-.26,0.13,0.06a2.87,2.87,0,0,0-.81-0.93C48,67.68,48.35,67.2,48.39,67a16.13,16.13,0,0,0-1.59-1.52l0.08,0a2.1,2.1,0,0,0-.76-0.83l-1-.41c-0.19-.08-0.43-0.09-0.61-0.17,0,0-.4.73-0.59,0.3-0.07-.16.81-0.9-0.11-0.83-0.41,0-1.26-.07-0.9.7,0.19,0.41,1.21.6,0.86,1a6.69,6.69,0,0,1-.81.15A0.47,0.47,0,0,0,43,64.93c-0.13-.29-0.26-0.19-0.52-0.16s-0.11-.34-0.13-0.39l0.08,0c-0.11-.5-0.7-1.75-0.8-0.5,0,0.09-.06.58-0.28,0.52s-0.43.25-.47,0a1,1,0,0,1,.25-0.7c-0.09.06-.59-0.44-0.73-0.21s0.39,0.56-.07.59a2.45,2.45,0,0,1-.78-0.36c-0.29-.16-1.07-0.31-0.82-0.67,0,0,1.74.42,1.29-.15a2.61,2.61,0,0,1-.61-0.54c-0.23-.57.28-0.24,0.29-0.63a2.91,2.91,0,0,0-.87-0.49,1,1,0,0,0-.28.74c-0.29-.39.24-0.66-0.47-0.89a1.93,1.93,0,0,1-1.29-1,3.25,3.25,0,0,0-1.34-.7,1,1,0,0,0-.72-0.24L34,59.58c-0.19.35,1.19,0.95,1.41,0.9l-0.07,0a0.45,0.45,0,0,0,.34-0.13,10.05,10.05,0,0,1,.28,1c0.27,0.58-.68-0.12-0.77-0.35l0.08,0a1.76,1.76,0,0,0-1.79-.76s0.13-.51-0.11-0.43a4.78,4.78,0,0,1-.73-0.33H32.56a31.44,31.44,0,0,0-3.48,2.34L29.26,62C29.61,62.36,29.23,63,29.6,63.13Zm6.88,35.12h0Zm5.54-25h0c0.38-.15,1.21.43,0.12,0.4a2.32,2.32,0,0,0-.9.13c-0.39.18-.62-0.17-0.19-0.24A4,4,0,0,0,42,73.26Zm-0.16-.32a0.31,0.31,0,0,1-.11-0.41H41.67c-0.2.13-.32,0.86-0.63,0.67s0.16-.57.15-0.76c0-.48-0.76-0.36-1-0.1s-0.44,1.1-.66.77l0.06,0a0.52,0.52,0,0,1,.11-0.55l0,0.05h0l0-.05a3.15,3.15,0,0,1,.41-0.82C40.59,71.47,42.37,72.48,41.86,72.94Zm-2.2-2.31a2.54,2.54,0,0,1,1.17,0c0.08,0.29.59,0.69,0.14,0.85l0,0a6,6,0,0,1-.62-0.5S39.07,70.77,39.65,70.64Zm-8.44-4.78c0.16,0.23.72,1.08,0.27,1.26a0.54,0.54,0,0,1,0-.44c-0.06-.1-0.23-0.27-0.29-0.38,0.06,0.13,0,0,0,0A0.52,0.52,0,0,1,31.22,65.86Z" transform="translate(0 -5.23)"/><path class="cls-5" d="M45.82,93.59c0-.1,0,0,0,0h0Z" transform="translate(0 -5.23)"/><path class="cls-5" d="M42,73.26h0Z" transform="translate(0 -5.23)"/><path class="cls-5" d="M39.71,72.65h0Z" transform="translate(0 -5.23)"/><path class="cls-5" d="M41.67,72.55h0Z" transform="translate(0 -5.23)"/><path class="cls-5" d="M39.41,60.62a1,1,0,0,1-.36-0.44,2.21,2.21,0,0,0-.7.07A1.07,1.07,0,0,1,38,59.77a1.66,1.66,0,0,1-.7-0.6,0.87,0.87,0,0,0-.81-0.41c-0.39-.06-0.44-0.13-0.63.09-0.31-.16-0.58,0-0.14.25s1,0.12,1.05.61S37,60,37.23,60a4.17,4.17,0,0,0,.49.68c0.15,0.06,1.41.71,1.45,0.67a1.19,1.19,0,0,0,.62-0.52C39.76,60.56,39.62,60.63,39.41,60.62Z" transform="translate(0 -5.23)"/><path class="cls-5" d="M38,59.56l0,0a3.2,3.2,0,0,0,.73.31c0.12,0,.42-0.43.25-0.53s-1.17.13-1,.22Z" transform="translate(0 -5.23)"/><path class="cls-5" d="M40.88,60.71a0.41,0.41,0,0,0,.67.24,0.87,0.87,0,0,0-.66-0.9,1,1,0,0,0-.61-0.17c-0.27.09-.12,0.37,0.05,0.45S40.85,60.41,40.88,60.71Z" transform="translate(0 -5.23)"/><path class="cls-5" d="M42.58,63.35c-0.14,0,0,0,0,0h0Z" transform="translate(0 -5.23)"/><path class="cls-5" d="M42.42,62.78c-1.12-.06-0.51.37,0.16,0.58C43,63.5,42.7,62.88,42.42,62.78Z" transform="translate(0 -5.23)"/><path class="cls-5" d="M42.45,62.5h0l-0.09-.16,0.13,0.06A0.31,0.31,0,0,0,42,62.19C41.84,62.42,42.42,62.63,42.45,62.5Z" transform="translate(0 -5.23)"/><path class="cls-5" d="M42.45,62.5h0Z" transform="translate(0 -5.23)"/><path class="cls-5" d="M42.45,62.5h0S42.43,62.68,42.45,62.5Z" transform="translate(0 -5.23)"/><path class="cls-5" d="M42.45,62.5h0Z" transform="translate(0 -5.23)"/><path class="cls-5" d="M42.46,62h0Z" transform="translate(0 -5.23)"/><path class="cls-5" d="M45.76,63.95L45.87,64a5.9,5.9,0,0,0-2.18-1.16,2.46,2.46,0,0,1-.64-0.92,2.51,2.51,0,0,0-.57-0.52l0.13,0.06C42.53,61.38,42.1,61,42.1,61a0.86,0.86,0,0,0,.36.95h0a4.52,4.52,0,0,0,1.3,1.37c0.47,0.24,1,.46,1.46.72C45.37,64.11,46.16,64.33,45.76,63.95Z" transform="translate(0 -5.23)"/><path class="cls-5" d="M60.73,74.5A1.54,1.54,0,0,0,60.28,74a9.48,9.48,0,0,0-1-.26C59,73.66,59,73.36,58.66,73.24s-0.34.38-.33,0.56,0.59,0.3.55,0.57,0.52,0.41.78,0.39a3.94,3.94,0,0,0,.67,0A0.41,0.41,0,0,0,60.73,74.5Z" transform="translate(0 -5.23)"/><path class="cls-5" d="M39.1,80.14a1.7,1.7,0,0,0-1.28-1.07c-0.76-.11.34,0.46,0.56,0.57,0.38,0.19.57,1.27,1.07,1.19C39.87,80.91,39.08,80.12,39.1,80.14Z" transform="translate(0 -5.23)"/><path class="cls-5" d="M39.44,80.84c-0.11,0,0,0,0,0h0Z" transform="translate(0 -5.23)"/><path class="cls-5" d="M39.4,79.37h0C39.34,79.35,39.28,79.34,39.4,79.37Z" transform="translate(0 -5.23)"/><path class="cls-5" d="M39.39,79.37h0a0.13,0.13,0,0,0,.12-0.22l0.09,0a0.2,0.2,0,0,0-.24-0.11C39.28,79.12,39.13,79.3,39.39,79.37Z" transform="translate(0 -5.23)"/><path class="cls-5" d="M39.4,79.37h0C39.49,79.39,39.45,79.39,39.4,79.37Z" transform="translate(0 -5.23)"/><path class="cls-5" d="M39.4,79.37h0Z" transform="translate(0 -5.23)"/><path class="cls-5" d="M41.41,82.68a0.64,0.64,0,0,0,.22-0.11C41.64,81.78,40.93,82.71,41.41,82.68Z" transform="translate(0 -5.23)"/><path class="cls-5" d="M76.3,102.8" transform="translate(0 -5.23)"/><path class="cls-5" d="M63.12,85.12c-0.08,0,.07,0,0,0h0Z" transform="translate(0 -5.23)"/><path class="cls-5" d="M63.12,85.12c0.35,0.11.46-.45,0.21-0.56S62.71,85.11,63.12,85.12Z" transform="translate(0 -5.23)"/><path class="cls-5" d="M61.74,84.31c0.43-.11-0.4-0.3-0.21,0A0.15,0.15,0,0,0,61.74,84.31Z" transform="translate(0 -5.23)"/><path class="cls-5" d="M64.11,86.53h0Z" transform="translate(0 -5.23)"/><path class="cls-5" d="M64.12,86.54h0Z" transform="translate(0 -5.23)"/><path class="cls-5" d="M64.11,86.53h0c0.51,0.44.52-.88-0.27-0.74A1.49,1.49,0,0,0,64.11,86.53Z" transform="translate(0 -5.23)"/><path class="cls-5" d="M60.8,79.51h0Z" transform="translate(0 -5.23)"/><path class="cls-5" d="M60.09,79.3c0.08,0.32.48,0.21,0.71,0.21h0a0.63,0.63,0,0,0,.68-0.66c0.12-.73-0.53-0.25-0.78-0.37-0.28.12-.25-0.1-0.38,0.37C60.27,79.1,60,78.95,60.09,79.3Z" transform="translate(0 -5.23)"/><path class="cls-5" d="M60.81,79.51h0Z" transform="translate(0 -5.23)"/><path class="cls-5" d="M61.75,78.88h0Z" transform="translate(0 -5.23)"/><path class="cls-5" d="M61.75,78.88s0.53,0.51.34,0.53a2.58,2.58,0,0,0-.78.25c-0.49.22-.11,0.4,0.24,0.5,0,0-.21.12-0.13,0.22a1.48,1.48,0,0,0,.43,0c0.23,0.11.38,0.34,0.62,0.45,0.49,0.23.69-.26,0.63-0.6l0.06,0c-0.07-.43-0.32-0.77-0.41-1.2l0.06,0c-0.1-.53,1.06-0.42.11-1l0.28,0.13a1,1,0,0,0-1.05-.37c-0.21.11-.33-0.33-0.53-0.07A1.11,1.11,0,0,0,61.75,78.88Z" transform="translate(0 -5.23)"/><path class="cls-5" d="M68.17,86.69h0Z" transform="translate(0 -5.23)"/><path class="cls-5" d="M73.23,80.12a0.12,0.12,0,0,0,0,.16A0.28,0.28,0,0,0,73.23,80.12Z" transform="translate(0 -5.23)"/><path class="cls-5" d="M68.19,86.66l0,0Z" transform="translate(0 -5.23)"/><path class="cls-5" d="M79.88,82.38a0.33,0.33,0,0,1-.43-0.17c-0.22-.36-0.94-0.19-1.21-0.47s-0.74-.14-1.1-0.31a0.64,0.64,0,0,0-.49-0.16s-0.51.33-.48,0.1,0.64-.39.27-0.63-0.58-.25-0.68.14c0,0-.14.73-0.25,0.58A0.72,0.72,0,0,0,75.41,81c-0.18,0-.35,0-0.54,0-0.39-.09-0.51.52-0.81,0.26a0.67,0.67,0,0,0-.34-0.36,0.63,0.63,0,0,1-.45,0,1,1,0,0,0,0-.62,0.12,0.12,0,0,1,0-.16,0.28,0.28,0,0,1,0,.16c0.35,0.34,2.21.69,2,.36a2.56,2.56,0,0,0-.48-0.76A5.61,5.61,0,0,1,73.35,79l0.1,0c-0.65-.77-1.5-1.91-2.58-2a12.57,12.57,0,0,0-1.51,0,5,5,0,0,0-1.33.44c-0.56.17-2.66-.25-2.8,0.68a1.45,1.45,0,0,0,0,1.18c0.51,0.57.81-.17,1.15,0.06s-0.42,1.17-.12,1.25a2.8,2.8,0,0,0,1.12.2,3.65,3.65,0,0,0,.8-0.55c0.63-.25.27-0.34,0.1-0.78,0.29-.45,1.25,0,1.67-0.51,0.11-.14,0-0.32.26-0.23a1.85,1.85,0,0,1,.71.36c0.13,0.17-1.26.32-1.37,0.38a1,1,0,0,0-.17,1,10.3,10.3,0,0,0,1.44.44c0.41,0.16.24,0.59-.29,0.36A2.85,2.85,0,0,0,69.3,81s0.47,0.8-.06.49-0.55-.41-1,0.06-0.09.35-.5,0.25a3.32,3.32,0,0,0-1.08-.51c-0.33-.05-1.07-0.3-0.92-0.74,0.09-.26.51-0.54-0.06-0.62-0.73-.1-0.52.56-0.61,0.95a1,1,0,0,0-.82-0.3,5.58,5.58,0,0,0-.62.23,2.52,2.52,0,0,1-.51-0.08c-0.27,0-.19.22-0.38,0.32A1.31,1.31,0,0,1,62.1,81a4.07,4.07,0,0,0-1.21-.09,9.34,9.34,0,0,0,.62.79,0.83,0.83,0,0,1-.6.86c-0.4-.1-1.35-1-1.75-0.74a1.18,1.18,0,0,0-.35.72,4.41,4.41,0,0,1-.5.62,0.66,0.66,0,0,0,.26.7,0.94,0.94,0,0,1,.41.68,1,1,0,0,1,1,0,1.67,1.67,0,0,0,.83-0.22,1.09,1.09,0,0,1,.57-0.55c-0.11,0,1.43-.19,1.09-0.4a1.53,1.53,0,0,0,.86.41c0.56-.1.59,0.06,0.67,0.56a2.44,2.44,0,0,0,.72,1.13c0.07,0.09.15,1.36,0.32,1.14s0.14-.83.63-0.65a5.55,5.55,0,0,1-.42-0.66l0.08,0c-0.19-.28-0.82-1.47-0.42-1.59a2.64,2.64,0,0,1,.67,1.24,5.12,5.12,0,0,1,.33,1.57c0,0.37-.33.73-0.32,1.1a2.89,2.89,0,0,0,1.19-.23,0.79,0.79,0,0,0,0-.39l0.06,0c-0.16-.5-0.15-0.26.29-0.41s0.34,0.3.19,0.64c-0.31.7,0.7,1.48,1.3,1.65,0.22,0.06.89,0,.68,0.36a3.54,3.54,0,0,1-1.11,1.13c-0.31.13-.68-0.45-1.11-0.49a2.82,2.82,0,0,1-1,.15c0-.22.93-0.14,0.89-0.41s-0.86-.45-1.06-0.65-0.38-.58-0.71-0.36-0.68.66-1,.13l0.08,0a15.6,15.6,0,0,1-1.36-1.65l0.07,0c-0.22-.46-0.36-0.53.22-0.5,0.23-.35.34-1.17-0.49-1.14-0.65,0-1.3-.59-2-0.62-0.27,0-.43,0-0.68,0s-0.88-.37-1.2-0.33a2,2,0,0,1-.75.17c-0.44-.21-0.86.81-1.06,1s-1.06-.06-1.46.27a10.68,10.68,0,0,1-1,1,2.12,2.12,0,0,0-.46,1.29c-0.08.22-1,.81-1,0.9,0,0.43-.39.84-0.12,1.22a1.8,1.8,0,0,1,.61,1.34c0,0.22.15,2.21,0.63,1.77,0.08-.41,1.5.55,2,0.32a0.82,0.82,0,0,1,1.12.32c0.24,0.43-.17,1.28.72,1,0.37-.11.6,0.63,0.19,0.8a1.89,1.89,0,0,0-.76,1.16,2.74,2.74,0,0,1,.06,2.25c-0.16.31-.18,1.22-0.5,1.32a1.53,1.53,0,0,0-.71.52,3.48,3.48,0,0,0-.34,2.82c0.14,0.62-.24.7-0.53,1.16a4,4,0,0,0,.06,1.36c-0.05.35-.19,0.67-0.27,1-0.18.7,0.45,0.64,0.86,0.62,0.88,0,1.35.6,2.18,0.19,0.39-.19,1.6-0.56,1.63-1,0.1-.26-0.17-0.58.39-0.5,0.39,0.06.6,0.14,0.69-.17a1.53,1.53,0,0,1,1-1.39c0.64-.23,1.44-0.3,1.72-0.95a1.4,1.4,0,0,1,.32-0.69,1.18,1.18,0,0,0,.05-0.81,1.46,1.46,0,0,1,.75-1.46,9.62,9.62,0,0,1,2-1,4.59,4.59,0,0,0,2.06-1.13,2.45,2.45,0,0,0,.8-0.8c0.38-.53-0.45-0.49-0.8-0.5a3.61,3.61,0,0,1-.88,0c-0.39-.09-0.32-0.24-0.33-0.42a1,1,0,0,0,.09-0.76,8.88,8.88,0,0,0-.49-2,1.49,1.49,0,0,1,.27-1.29,4,4,0,0,0,.14-1.25c0-.34-0.21-1.06.44-0.66a5.7,5.7,0,0,1,0,1.81,2.59,2.59,0,0,0,.09,1.44,3.39,3.39,0,0,1-.21,1.69c-0.15.64,0.29,0.89,0.93,0.78a14.46,14.46,0,0,1,1.54,0c0.2-.13,1.24-0.09,1.6-0.24s1.5-.71,1.32-1.21A1.61,1.61,0,0,0,73,95.14c-0.19-.12.13-0.36-0.09-0.47a5.14,5.14,0,0,0-.9.24c-0.4,0-.2-0.31-0.27-0.53l0.07,0c-0.14-.39-0.6-2.09.19-1.91a1.55,1.55,0,0,1,.11.85,4.13,4.13,0,0,0,.46.86c0.14,0.25.37,0.13,0.62,0.12s0.2,0.37.23,0.52a1.52,1.52,0,0,0,1,.86c0.35,0.17.75,0,1,.15a4.09,4.09,0,0,1,.44,1.25c-0.38.68,0.13,0.9,0.65,0.6a6.33,6.33,0,0,0-.71,3.48,2.12,2.12,0,0,1-.1,1c-0.19.5,0,.46,0.36,0.3l0,0c0.37-.65.72-1.32,1-2A31.53,31.53,0,0,0,79.88,82.38ZM63.52,100c-0.57.38-.36-0.38-0.16-0.55l0,0,0,0C63.64,99.09,64.14,99.63,63.52,100Zm8.11-18.82c0.28-.27.71,0.64,0.29,0.55h0C71.73,81.7,71.37,81.39,71.62,81.22Zm-0.34,7.1a1.92,1.92,0,0,1-1.13-.73l0.12,0.06a1.08,1.08,0,0,0-1.1-.45c-0.1.07-1.19-.33-1.19-0.26,0.07-.09.13-0.18,0.19-0.28a1.88,1.88,0,0,1,1.21-1c0.58-.29.54,0.44,0.53,0.8s0.79-.12.83-0.16,0.64,0,.54.12-0.38,0-.41.11a6.44,6.44,0,0,0,.68,1.22C71.73,88,71.69,88.43,71.28,88.32Zm4,0.37h0c-0.35,0-.47-0.46-0.79-0.4-0.68,0-.18.48-0.17,0.74s0.39,0.68.06,0.81a1.62,1.62,0,0,0-.21.95c-0.2.77-1.4-.06-1.4-0.55a0.52,0.52,0,0,1,.18-0.5l0.69-.09a0.54,0.54,0,0,0-.29-0.54l0.13,0.06c-0.35-.32-0.47-2.12.31-1.65a1.06,1.06,0,0,0,1.06.13,0.91,0.91,0,0,1,.48,1S75.35,88.66,75.32,88.68Z" transform="translate(0 -5.23)"/><path class="cls-5" d="M75.28,88.68h0l0,0H75.28Z" transform="translate(0 -5.23)"/><path class="cls-5" d="M78.21,80.67c0.23,0.26.82,1.08,1.23,0.89s0-.33.09-0.63l0.1-.07c0-.21-0.09-0.42-0.13-0.62a2.12,2.12,0,0,1-.38.06S77.91,80.36,78.21,80.67Z" transform="translate(0 -5.23)"/><path class="cls-5" d="M78.21,80.67c-0.08-.08.1,0.12,0,0h0Z" transform="translate(0 -5.23)"/><path class="cls-5" d="M40.12,60.88h0Z" transform="translate(0 -5.23)"/><path class="cls-5" d="M40.83,61.68c0,0.42.85,0.3,0.8,0a2.51,2.51,0,0,0-1.51-.77c-0.25.09-.46,0.85-0.14,0.63S40.87,61.18,40.83,61.68Z" transform="translate(0 -5.23)"/><path class="cls-5" d="M41.38,62.49h0Z" transform="translate(0 -5.23)"/><path class="cls-5" d="M40.23,62c-0.65.2,0.37,0.55,0.36,0.59-0.19,1.07,1.05.4,0.79-.11A2.74,2.74,0,0,0,40.23,62Z" transform="translate(0 -5.23)"/><path class="cls-5" d="M41,81.84a0.74,0.74,0,0,0-.23-0.36h0a1.15,1.15,0,0,0-1.22,0c0.27,0.15,1.71,1.47,1.39.37Z" transform="translate(0 -5.23)"/><path class="cls-5" d="M40.72,81.46h0Z" transform="translate(0 -5.23)"/><path class="cls-5" d="M40.73,81.47h0S40.76,81.5,40.73,81.47Z" transform="translate(0 -5.23)"/><path class="cls-5" d="M40.73,81.47h0Z" transform="translate(0 -5.23)"/><path class="cls-5" d="M38.57,81.2h0c-0.23-.05-0.39.42-0.12,0.44S38.85,81.19,38.57,81.2Z" transform="translate(0 -5.23)"/><path class="cls-5" d="M43.43,67.33l-0.16,0c-0.08,0,.17.32,0.27,0.22S43.56,67.33,43.43,67.33Z" transform="translate(0 -5.23)"/><path class="cls-5" d="M43.43,67.33c0.16,0,0,0,0,0h0Z" transform="translate(0 -5.23)"/><path class="cls-5" d="M44,67.89c-0.27,0-.12.28,0.05,0.24S44.28,67.87,44,67.89Z" transform="translate(0 -5.23)"/><path class="cls-5" d="M60.5,70.32c-0.74-.63.77-1.12,1.32-1.23,0.3-.06,1.21-0.13.72-0.58-0.63-.61-0.9.06-1.57-0.07-1-.21.32-2-0.52-2.27a3.8,3.8,0,0,0-1-.3c-0.25,0-.45-0.21-0.71-0.22a2,2,0,0,1-1.23-.56c0.21,0.12,1.84.8,2,.56A1.22,1.22,0,0,0,59,65.14l0.14,0.07a6.79,6.79,0,0,0-2.44-1.15l0.13,0.06A4.43,4.43,0,0,0,55.43,64a1.37,1.37,0,0,0-.53.35c-0.29.18-.24-0.24-0.19-0.2,0-.65-0.41,0-0.56.17-0.37.58-.83-0.13-1.14-0.33-0.14-.09-1.72-0.71-1.68-0.24s-0.47,0-.61,0a0.43,0.43,0,0,0-.44.16c-0.15.46-.37,0.19-0.67,0.18a6.51,6.51,0,0,1-.65.24c-0.26,0-.47-0.17-0.72-0.2l0.1,0a0.3,0.3,0,0,0-.25,0,3.59,3.59,0,0,1,.63,1.1c0.27,0.33.64-.18,0.72-0.33-0.36.63,1.08,0.9,1.4,1.37s0.61,0.6.4,1.24c-0.11.32-.4,0.86,0.2,0.52,0.36,0,.55,0,0.56.65s-0.52.29-.31,0.07c0-.23.45-0.34-0.06-0.54a0.49,0.49,0,0,0-.56.29c-0.16.33,0.32,0.41,0.27,0.53a1.12,1.12,0,0,0-.43.65,0.69,0.69,0,0,0,.31.72C51,70.26,51,70.66,51,70.7a3.94,3.94,0,0,0,.42,1.07,0.9,0.9,0,0,0,.52.28c0,0.32,0,.49.39,0.46a3.62,3.62,0,0,0,.4-0.22A1.92,1.92,0,0,1,53,71.86c0.19,0,.32.26,0.44-0.06,0.21-.55.89-0.42,1.39-0.14s0.75-.44,1.36-0.1a2.77,2.77,0,0,0,1.31.27c0.24,0,.55.36,0.44-0.08l0.06,0s-0.47-1.11-.2-1a0.68,0.68,0,0,1,.28.79c0,0.44.66,0.35,0.64-.08-0.21-.43.16-1.05,0.67-0.55S60,70.6,60.5,70.32Z" transform="translate(0 -5.23)"/><path class="cls-5" d="M66.13,105.24h0Z" transform="translate(0 -5.23)"/><path class="cls-5" d="M65.22,105.43a4.82,4.82,0,0,0-1.35.37,5.71,5.71,0,0,0-.22.79,2.82,2.82,0,0,0-.49.65A1.6,1.6,0,0,0,63,108.4c0.73,0.81,3.17-2.4,3.12-3.16C65.92,104.73,65.5,105.29,65.22,105.43Z" transform="translate(0 -5.23)"/></svg>
