<svg id="Layer_1" data-name="Layer 1" xmlns="http://www.w3.org/2000/svg" viewBox="0 0 285.93 281.91"><defs><style>.cls-1{fill:#194771;}.cls-2{fill:#f74525;}.cls-3{fill:#fff;}</style></defs><title>logo</title><polygon class="cls-1" points="252.38 0 57.69 71.95 278.98 71.95 252.38 0"/><polygon class="cls-1" points="33.73 185.77 33.73 82.03 0 94.5 33.73 185.77"/><path class="cls-2" d="M26.92,87V288.32H293.5V87H26.92Zm114.21,169.8H46.3v-6.58h94.83v6.58Zm0-21.52H46.3v-6.58h94.83v6.58Zm133,21.52H179.28v-6.58h94.84v6.58Zm0-21.52H179.28v-6.58h94.84v6.58Z" transform="translate(-7.56 -6.41)"/><path class="cls-3" d="M47.49,100.62L87.12,101l36.42,63.41h1.21l-0.31-1.53c-0.94-5.94-1.64-11-2.15-15.15a88.57,88.57,0,0,1-.69-12.29l0.35-34.09,39.47,0.41-1.19,113.64L120.75,215,85,155l-1.2,0c1.6,9.87,2.39,17.44,2.34,22.77l-0.4,36.94-39.5-.41Z" transform="translate(-7.56 -6.41)"/><path class="cls-3" d="M195.48,171.91l2.07,1.75a56.57,56.57,0,0,0,12.41,8,32.86,32.86,0,0,0,13,3.2,15.75,15.75,0,0,0,7.22-1.45,5.36,5.36,0,0,0,3.52-5,4.42,4.42,0,0,0-2-4.3,19.82,19.82,0,0,0-5.82-2.15l-1.19-.16L216.49,170q-13-2.67-21.08-10.55T187.76,139a37.74,37.74,0,0,1,4.63-17.51,40.33,40.33,0,0,1,11.5-13A48.62,48.62,0,0,1,220,100.71a60.74,60.74,0,0,1,18.31-2.25A67.76,67.76,0,0,1,274,109.55l-12,28.74a63.79,63.79,0,0,0-11.54-6.63,33.34,33.34,0,0,0-12.14-2.72,13.61,13.61,0,0,0-6.13,1.22,4.87,4.87,0,0,0-2.95,4.54,3.78,3.78,0,0,0,1.82,3.58,17.42,17.42,0,0,0,5.25,1.9l1,0.33,9.26,2.39c9.38,2.42,16.65,6.29,21.8,11.7s7.59,12.68,7.3,21.8a36.16,36.16,0,0,1-16.15,29.78,51.61,51.61,0,0,1-16.14,7.22,66.85,66.85,0,0,1-18.22,2,97.72,97.72,0,0,1-22.36-3.5,94.94,94.94,0,0,1-21-8.27Z" transform="translate(-7.56 -6.41)"/></svg>
